<svg width="128" height="128" xmlns="http://www.w3.org/2000/svg">

 <g>
  <title>Layer 1</title>
  <path id="svg_2" fill="#fff" d="m72.973,79.363l-0.973,-2.253l-8.379,-19.93c-2.766,-7.054 -9.664,-11.82 -17.437,-11.82c-10.52,0 -19.051,8.907 -19.051,19.903c0,10.984 8.531,19.898 19.05,19.898c7.344,0 13.715,-4.336 16.899,-10.683l3.387,8.156c-4.805,6.12 -12.114,10.02 -20.285,10.02c-14.489,0 -26.23,-12.255 -26.23,-27.391c0,-15.133 11.741,-27.403 26.23,-27.403c10.933,0 19.761,6.094 24.25,16.903c0.336,0.84 4.742,11.59 8.586,20.738c2.375,5.66 4.402,9.422 10.988,9.652c6.453,0.23 10.898,-3.87 10.898,-9.07c0,-5.074 -3.394,-6.293 -9.101,-8.277c-10.258,-3.528 -15.563,-7.075 -15.563,-15.575c0,-8.289 5.399,-13.82 14.18,-13.82c5.71,0 9.848,2.656 12.71,7.953l-5.62,2.996c-2.11,-3.086 -4.438,-4.308 -7.407,-4.308c-4.12,0 -7.05,2.992 -7.05,6.972c0,5.653 4.84,6.504 11.601,8.817c9.114,3.096 13.344,6.639 13.344,15.471c0,9.282 -7.621,16.043 -17.578,16.028c-9.172,-0.043 -14.063,-4.723 -17.45,-12.977"/>
 </g>
</svg>